<svg width="378" height="378" xmlns="http://www.w3.org/2000/svg" xmlns:xlink="http://www.w3.org/1999/xlink" overflow="hidden"><defs><clipPath id="clip0"><rect x="0" y="0" width="378" height="378"/></clipPath><linearGradient x1="189.762" y1="60.0201" x2="189.762" y2="210.989" gradientUnits="userSpaceOnUse" spreadMethod="reflect" id="fill1"><stop offset="0" stop-color="#F2F7FB"/><stop offset="0.8" stop-color="#D1E3F3"/><stop offset="1" stop-color="#F277D0"/></linearGradient><linearGradient x1="189.762" y1="60.0201" x2="189.762" y2="210.989" gradientUnits="userSpaceOnUse" spreadMethod="reflect" id="fill2"><stop offset="0" stop-color="#F2F7FB"/><stop offset="0.8" stop-color="#D1E3F3"/><stop offset="1" stop-color="#F277D0"/></linearGradient><linearGradient x1="189.762" y1="60.0201" x2="189.762" y2="210.989" gradientUnits="userSpaceOnUse" spreadMethod="reflect" id="fill3"><stop offset="0" stop-color="#F2F7FB"/><stop offset="0.8" stop-color="#D1E3F3"/><stop offset="1" stop-color="#F277D0"/></linearGradient><linearGradient x1="189.762" y1="60.0201" x2="189.762" y2="210.989" gradientUnits="userSpaceOnUse" spreadMethod="reflect" id="fill4"><stop offset="0" stop-color="#F2F7FB"/><stop offset="0.8" stop-color="#D1E3F3"/><stop offset="1" stop-color="#F277D0"/></linearGradient><linearGradient x1="189.762" y1="60.0201" x2="189.762" y2="210.989" gradientUnits="userSpaceOnUse" spreadMethod="reflect" id="fill5"><stop offset="0" stop-color="#F2F7FB"/><stop offset="0.8" stop-color="#D1E3F3"/><stop offset="1" stop-color="#F277D0"/></linearGradient></defs><g clip-path="url(#clip0)"><rect x="0" y="0" width="378" height="378" fill="#FFFFFF" fill-opacity="0"/><text fill="#F277D0" font-family="Arial,Arial_MSFontService,sans-serif" font-weight="700" font-size="209" transform="translate(115.2 321)">A</text><path d="M46.6196 164.167 64.2913 174.588 68.3495 167.707C71.2722 162.75 72.9004 159.245 73.2344 157.19 73.5684 155.135 73.3213 153.224 72.4931 151.457 71.6648 149.69 70.3303 148.264 68.4895 147.178 66.2239 145.842 63.9623 145.405 61.7048 145.868 59.4472 146.33 57.5331 147.473 55.9625 149.295 54.7942 150.629 52.874 153.561 50.2019 158.092ZM28.6694 170.529 40.5686 150.351C45.0778 142.704 48.3286 137.903 50.3211 135.949 53.3599 132.931 57.1538 131.142 61.7027 130.58 66.2517 130.018 71.0041 131.199 75.9601 134.121 79.7834 136.376 82.5885 138.965 84.3756 141.889 86.1628 144.814 87.1693 147.783 87.3952 150.798 87.6211 153.813 87.3234 156.567 86.5022 159.06 85.3267 162.412 83.0605 166.935 79.7037 172.627L74.8688 180.826 98.3603 194.679 90.9453 207.253Z" stroke="#5B9BD5" stroke-width="3" stroke-linejoin="round" stroke-miterlimit="10" fill="url(#fill1)" fill-rule="evenodd"/><text fill="#000000" fill-opacity="0" font-family="Arial,Arial_MSFontService,sans-serif" font-size="76.8089" x="28.6694" y="197.652">P</text><path d="M104.669 97.5666 113.384 113.71 122.888 108.58C129.05 105.253 132.757 102.916 134.01 101.567 135.262 100.219 135.978 98.674 136.159 96.9325 136.34 95.191 135.915 93.3655 134.884 91.456 133.728 89.315 132.224 87.8949 130.371 87.1954 128.517 86.4959 126.455 86.5348 124.185 87.3121 123.065 87.7296 119.901 89.344 114.694 92.1552ZM86.0137 93.7383 113.05 79.1437C119.849 75.4736 125.098 73.3783 128.796 72.8578 132.494 72.3374 136.057 73.0384 139.486 74.961 142.915 76.8835 145.645 79.7253 147.675 83.4864 150.252 88.2601 150.977 92.9595 149.849 97.5845 148.722 102.21 145.585 106.434 140.438 110.258 144.09 110.379 147.344 110.921 150.198 111.883 153.053 112.846 157.349 114.973 163.086 118.264L177.554 126.483 162.192 134.776 145.432 125.945C139.463 122.778 135.523 120.879 133.613 120.248 131.703 119.616 129.939 119.429 128.322 119.685 126.704 119.942 124.42 120.867 121.469 122.46L118.865 123.865 133.202 150.424 120.357 157.359Z" stroke="#5B9BD5" stroke-width="3" stroke-linejoin="round" stroke-miterlimit="10" fill="url(#fill2)" fill-rule="evenodd"/><text fill="#000000" fill-opacity="0" font-family="Arial,Arial_MSFontService,sans-serif" font-size="84.6671" x="86.0137" y="146.775">R</text><path d="M175.355 60.5961 189.941 60.0201 192.794 132.262 178.207 132.838Z" stroke="#5B9BD5" stroke-width="3" stroke-linejoin="round" stroke-miterlimit="10" fill="url(#fill3)" fill-rule="evenodd"/><text fill="#000000" fill-opacity="0" font-family="Arial,Arial_MSFontService,sans-serif" font-size="72.8175" x="175.355" y="123.735">I</text><path d="M230.862 61.9614 250.375 71.7869 239.912 121.734 273.676 83.5198 293.233 93.3675 260.718 157.941 248.605 151.842 274.2 101.011 235.787 145.388 223.233 139.066 236.055 81.8035 210.46 132.634 198.347 126.535Z" stroke="#5B9BD5" stroke-width="3" stroke-linejoin="round" stroke-miterlimit="10" fill="url(#fill4)" fill-rule="evenodd"/><text fill="#000000" fill-opacity="0" font-family="Arial,Arial_MSFontService,sans-serif" font-size="95.9797" x="198.347" y="145.944">M</text><path d="M324.411 127.492 350.855 174.123 340.216 180.156 320.973 146.224 307.031 154.13 324.936 185.703 314.34 191.712 296.435 160.139 279.319 169.846 299.243 204.98 288.647 210.989 261.522 163.157Z" stroke="#5B9BD5" stroke-width="3" stroke-linejoin="round" stroke-miterlimit="10" fill="url(#fill5)" fill-rule="evenodd"/><text fill="#000000" fill-opacity="0" font-family="Arial,Arial_MSFontService,sans-serif" font-size="83.4963" x="261.522" y="200.552">E</text></g></svg>